<svg width="79" height="79" viewBox="0 0 79 79" fill="none" xmlns="http://www.w3.org/2000/svg">
<rect width="78.2692" height="78.2692" rx="39.1346" fill="black"/>
<path d="M49.4388 39.8168C50.9778 40.6696 52.2659 41.4602 53.6206 42.1154C56.1501 43.339 57.3738 45.2156 57.2694 48.1094C57.1339 51.9136 57.2272 55.7268 57.2405 59.5377C57.2428 60.215 57.1672 60.9235 56.4344 61.0368C55.9014 61.1189 55.1374 60.9812 54.7643 60.6348C51.1422 57.2547 47.3579 54.0079 44.0711 50.3213C41.0396 46.919 39.907 42.6084 40.4556 38.0224C41.0419 33.121 43.5003 29.3212 47.5755 26.5274C51.8128 23.6204 56.0124 20.6578 60.2298 17.7241C60.8338 17.3044 61.4179 16.7802 62.2374 17.2355C63.0236 17.6708 63.0013 18.417 63.0013 19.1721C62.9947 23.2784 63.0013 27.3824 62.9969 31.4887C62.9947 33.8117 62.0464 34.9754 59.8678 35.7327C56.8719 36.7743 53.916 37.9313 50.9512 39.0573C50.5092 39.2261 50.1006 39.4837 49.441 39.8213L49.4388 39.8168Z" fill="url(#paint0_linear_1807_1620)"/>
<path d="M28.728 39.5535C25.9831 38.4897 23.2426 37.4104 20.491 36.3666C19.6982 36.0668 18.8632 35.878 18.057 35.6182C16.3336 35.0608 15.2943 33.7016 15.2832 31.885C15.261 27.5211 15.2499 23.1527 15.3121 18.7888C15.3187 18.2581 15.694 17.5274 16.1249 17.2742C16.4913 17.0588 17.2953 17.232 17.7128 17.5185C22.321 20.6721 26.9469 23.8034 31.4574 27.0925C37.7157 31.6585 39.6456 39.8222 36.3721 46.8245C35.4438 48.8099 34.2312 50.4888 32.6256 51.9701C29.7163 54.6529 26.9025 57.4378 24.0466 60.176C23.7801 60.4314 23.5224 60.709 23.2226 60.9178C22.261 61.5818 21.0618 61.0555 21.0551 59.9007C21.024 55.4235 20.984 50.9463 21.0973 46.4714C21.1439 44.6792 22.3387 43.4377 23.8689 42.5738C25.4679 41.67 27.0802 40.7861 28.6858 39.8933C28.7014 39.78 28.7169 39.6668 28.7303 39.5557L28.728 39.5535Z" fill="url(#paint1_linear_1807_1620)"/>
<path d="M28.5906 39.4893C33.9206 40.4886 37.4739 43.4878 37.4739 43.4878C37.0297 46.1527 33.5874 50.3713 33.5874 50.3713L23.5938 42.7094C23.5938 42.7094 28.3685 40.0445 28.5906 39.4893Z" fill="url(#paint2_linear_1807_1620)"/>
<path d="M49.5739 39.7081C44.6838 41.3003 40.9149 44.9317 40.9149 44.9317C41.6124 47.888 46.0385 52.3788 46.0385 52.3788L54.906 42.7109C54.906 42.7109 49.8406 40.3126 49.5739 39.7081Z" fill="url(#paint3_linear_1807_1620)"/>
<defs>
<linearGradient id="paint0_linear_1807_1620" x1="51.6618" y1="17.0596" x2="58.4041" y2="60.8261" gradientUnits="userSpaceOnUse">
<stop stop-color="#ACD7FB"/>
<stop offset="0.456553" stop-color="white"/>
<stop offset="0.65483" stop-color="#AED6F7"/>
</linearGradient>
<linearGradient id="paint1_linear_1807_1620" x1="26.6053" y1="17.1777" x2="38.8063" y2="58.2545" gradientUnits="userSpaceOnUse">
<stop stop-color="#ACD7FB"/>
<stop offset="0.456553" stop-color="white"/>
<stop offset="0.690584" stop-color="#AED6F7"/>
</linearGradient>
<linearGradient id="paint2_linear_1807_1620" x1="31.6997" y1="39.7888" x2="28.2575" y2="46.818" gradientUnits="userSpaceOnUse">
<stop stop-color="#CBE3FC"/>
<stop offset="0.768554" stop-color="#9ABFEA" stop-opacity="0"/>
</linearGradient>
<linearGradient id="paint3_linear_1807_1620" x1="46.6911" y1="40.3183" x2="51.652" y2="47.2003" gradientUnits="userSpaceOnUse">
<stop stop-color="#CBE3FC"/>
<stop offset="0.768554" stop-color="#9ABFEA" stop-opacity="0"/>
</linearGradient>
</defs>
</svg>
