<svg width="79" height="79" viewBox="0 0 79 79" fill="none" xmlns="http://www.w3.org/2000/svg">
<rect width="78.2692" height="78.2692" rx="39.1346" fill="url(#paint0_linear_1865_904)"/>
<path d="M55.7859 31.1289C55.7447 28.9422 55.273 26.785 54.3978 24.7807C53.5226 22.7764 52.2611 20.9641 50.6853 19.4474C49.1096 17.9308 47.2504 16.7395 45.2141 15.9415C43.1777 15.1436 41.0041 14.7547 38.8175 14.7971C34.5111 14.8772 30.4034 16.6236 27.3578 19.6692C24.3122 22.7148 22.5658 26.8225 22.4857 31.1289C22.4857 31.1745 22.4766 31.2179 22.4766 31.2521V61.6178C22.4766 62.108 22.6713 62.5781 23.0179 62.9247C23.3646 63.2714 23.8347 63.4661 24.3249 63.4661C24.8151 63.4661 25.2853 63.2714 25.6319 62.9247C25.9786 62.5781 26.1733 62.108 26.1733 61.6178V56.2392C26.1733 55.749 26.368 55.2789 26.7147 54.9322C27.0613 54.5856 27.5314 54.3909 28.0217 54.3909C28.5119 54.3909 28.982 54.5856 29.3286 54.9322C29.6753 55.2789 29.87 55.749 29.87 56.2392V58.7882C29.8974 59.815 30.7372 60.6205 31.764 60.6023C32.2417 60.5913 32.6968 60.3966 33.0346 60.0587C33.3725 59.7209 33.5671 59.2658 33.5782 58.7882V56.2392C33.5782 55.749 33.7729 55.2789 34.1195 54.9322C34.4662 54.5856 34.9363 54.3909 35.4265 54.3909C35.9167 54.3909 36.3869 54.5856 36.7335 54.9322C37.0802 55.2789 37.2749 55.749 37.2749 56.2392V56.9398C37.2749 57.43 37.4696 57.9001 37.8163 58.2468C38.1629 58.5934 38.633 58.7882 39.1233 58.7882C39.6135 58.7882 40.0836 58.5934 40.4303 58.2468C40.7769 57.9001 40.9716 57.43 40.9716 56.9398V56.2392C40.983 55.7478 41.1887 55.2809 41.5438 54.9408C41.8988 54.6008 42.3741 54.4153 42.8656 54.4251C43.856 54.4434 44.6524 55.2489 44.6775 56.2392V58.7882C44.6763 59.2808 44.8708 59.7537 45.2183 60.1029C45.5658 60.4521 46.0378 60.649 46.5304 60.6502C47.0231 60.6514 47.496 60.4569 47.8452 60.1094C48.1944 59.7619 48.3913 59.2899 48.3925 58.7973V56.2484C48.3925 55.7582 48.5872 55.288 48.9338 54.9414C49.2805 54.5947 49.7506 54.4 50.2408 54.4C50.7311 54.4 51.2012 54.5947 51.5478 54.9414C51.8945 55.288 52.0892 55.7582 52.0892 56.2484V61.6269C52.0892 62.1171 52.2839 62.5872 52.6306 62.9339C52.9772 63.2805 53.4473 63.4753 53.9376 63.4753C54.4278 63.4753 54.8979 63.2805 55.2446 62.9339C55.5912 62.5872 55.7859 62.1171 55.7859 61.6269V31.2612C55.7947 31.2175 55.7947 31.1725 55.7859 31.1289ZM32.9894 33.801C31.3533 33.801 30.0298 32.2858 30.0298 30.4009C30.0298 28.5183 31.3601 27.0008 32.9917 27.0008C34.621 27.0008 35.9514 28.5183 35.9514 30.4009C35.9514 32.2858 34.6279 33.801 32.9917 33.801H32.9894ZM39.2647 38.6022C37.7746 38.6022 36.5743 37.7168 36.5743 36.6215C36.5743 35.5261 37.7838 36.1925 39.2647 36.1925C40.7457 36.1925 41.9529 35.5353 41.9529 36.6215C41.9529 37.7077 40.7526 38.5931 39.2647 38.6022ZM45.2822 33.801C43.6438 33.801 42.3225 32.2858 42.3225 30.4009C42.3225 28.5183 43.646 27.0008 45.2822 27.0008C46.9206 27.0008 48.2441 28.5183 48.2441 30.4009C48.2441 32.2858 46.9115 33.801 45.2822 33.801Z" fill="white"/>
<defs>
<linearGradient id="paint0_linear_1865_904" x1="78.2692" y1="29.5026" x2="1.04768e-06" y2="59.7707" gradientUnits="userSpaceOnUse">
<stop stop-color="#B6509E"/>
<stop offset="1" stop-color="#2EBAC6"/>
</linearGradient>
</defs>
</svg>
