<svg width="79" height="79" viewBox="0 0 79 79" fill="none" xmlns="http://www.w3.org/2000/svg">
<rect width="78.2692" height="78.2692" rx="39.1346" fill="black"/>
<path fill-rule="evenodd" clip-rule="evenodd" d="M22.3212 52.5063C21.1297 51.777 20.4004 50.4819 20.4004 49.0871V41.3001C20.4004 40.3756 21.1536 39.6264 22.0781 39.6304C22.373 39.6304 22.6639 39.7101 22.919 39.8575L40.4894 50.1033C41.5176 50.7011 42.1512 51.8009 42.1512 52.9925V61.0584C42.1552 62.1663 41.2586 63.0669 40.1507 63.0669C39.7801 63.0669 39.4134 62.9633 39.0986 62.772L22.3212 52.5063ZM48.5115 37.7255C49.5397 38.3232 50.1693 39.4271 50.1733 40.6147V56.9856C50.1733 57.4678 49.9143 57.9141 49.4918 58.1493L45.6462 60.3132C45.5984 60.3411 45.5466 60.361 45.4908 60.3769V51.2869C45.4908 50.1113 44.8731 49.0193 43.8608 48.4136L28.4304 39.184V28.9223C28.4304 27.9978 29.1836 27.2486 30.1082 27.2525C30.4031 27.2525 30.694 27.3322 30.949 27.4797L48.5115 37.7255ZM56.2028 25.6346C57.2349 26.2324 57.8686 27.3362 57.8686 28.5278V52.4386C57.8646 52.9287 57.5936 53.3791 57.1632 53.6142L53.5168 55.5828V38.9369C53.5168 37.7613 52.8991 36.6734 51.8949 36.0677L36.1217 26.607V16.8753C36.1217 16.5804 36.2014 16.2895 36.3449 16.0344C36.8112 15.2374 37.8353 14.9664 38.6324 15.4287L56.2028 25.6346Z" fill="#00D395"/>
</svg>
