<svg width="79" height="79" viewBox="0 0 79 79" fill="none" xmlns="http://www.w3.org/2000/svg">
<rect width="78.2692" height="78.2692" rx="39.1346" fill="#191C4E"/>
<path d="M15.3867 30.396C17.364 29.4088 19.3301 28.3965 21.3324 27.4621C21.6216 27.3287 22.125 27.4955 22.467 27.6596C25.2535 28.9917 28.0122 30.3905 30.8182 31.6808C31.3021 31.9033 32.0752 31.9061 32.5507 31.6753C36.7694 29.6341 40.9548 27.5205 45.1484 25.4265C46.6835 24.773 48.2214 24.1194 49.7565 23.4659C49.7537 23.3408 49.7509 23.2129 49.7481 23.0877C48.1435 22.4592 46.5361 21.8307 44.9315 21.205C47.02 20.2039 49.1002 19.1833 51.2109 18.2238C51.553 18.0681 52.0925 18.0598 52.4262 18.221C55.9413 19.9341 59.4314 21.6972 62.9271 23.4492C62.7101 23.5188 62.4793 23.5633 62.2763 23.6606C54.3256 27.4844 46.3832 31.3277 38.4241 35.132C36.1465 36.2221 33.8161 37.2066 31.5134 38.2383C28.6018 36.8506 25.679 35.4796 22.7757 34.0697C20.3034 32.8683 17.8506 31.6224 15.3895 30.396H15.3867Z" fill="#4950D4"/>
<path d="M46.0023 49.5455C46.742 49.9404 47.479 50.3353 48.2187 50.7302C47.7904 50.9833 47.3733 51.2613 46.9283 51.4866C45.2236 52.3543 43.5133 53.2052 41.803 54.0618C39.7563 53.0217 37.7123 51.9733 35.6599 50.9471C32.3339 49.2813 28.9995 47.6322 25.668 45.9748C26.4939 45.5131 27.3365 45.0765 28.1402 44.5815C28.4934 44.3646 28.7715 44.0281 29.0858 43.7444C29.489 43.9141 29.8839 44.1199 30.301 44.2478C30.8044 44.4035 31.3272 44.4925 31.8417 44.6093C36.1855 42.7016 40.5294 40.7966 44.8704 38.8833C45.3321 38.6803 45.7715 38.4217 46.222 38.1937C47.8655 37.3705 49.523 36.5724 51.1526 35.7186C52.1815 35.1791 53.1354 34.4867 54.1838 33.9972C55.7022 33.2881 57.2762 32.7013 58.828 32.0645C59.8458 32.7069 60.8637 33.3493 61.8787 33.9944C61.7758 34.2781 61.6729 34.5617 61.5673 34.8454C60.4577 35.3126 59.3481 35.7798 58.2385 36.2442L57.1233 36.7948C56.9398 36.9311 56.7757 37.1008 56.5727 37.1953C51.1582 39.815 45.7381 42.4235 40.3236 45.0459C39.9648 45.2183 39.645 45.4659 39.3057 45.68C39.1862 45.7634 39.0694 45.8468 38.9498 45.9275C39.1639 46.0359 39.3808 46.1444 39.595 46.2529C41.5222 47.1372 43.4466 48.0243 45.3738 48.9087C45.5824 49.12 45.7881 49.3314 45.9967 49.5399L46.0023 49.5455Z" fill="#2CCDB0"/>
<path d="M58.8309 32.0646C57.2792 32.7042 55.7052 33.2882 54.1868 33.9974C53.1356 34.4868 52.1845 35.1793 51.1555 35.7188C49.5259 36.5725 47.8684 37.3707 46.2249 38.1938C45.7716 38.4191 45.335 38.6777 44.8734 38.8835C40.5323 40.7968 36.1884 42.7017 31.8446 44.6095C31.7334 42.4848 31.6221 40.363 31.5137 38.2383C33.8191 37.2066 36.1467 36.2221 38.4243 35.132C46.3834 31.3277 54.3258 27.4844 62.2765 23.6606C62.4795 23.5632 62.7104 23.5187 62.9273 23.4492C63.033 25.14 63.0941 26.8364 63.2638 28.5217C63.35 29.3754 62.9356 29.7481 62.2793 30.0985C61.1141 30.7214 59.9795 31.4055 58.8309 32.0646Z" fill="#262D96"/>
<path d="M45.3786 48.9136C43.4514 48.0293 41.527 47.1422 39.5998 46.2578C39.5024 46.0659 39.4051 45.874 39.3105 45.6822C39.6498 45.468 39.9696 45.2205 40.3284 45.0481C45.7429 42.4284 51.163 39.8171 56.5775 37.1975C56.7777 37.1001 56.9446 36.9305 57.1281 36.797C57.5007 36.6135 57.8706 36.4299 58.2433 36.2464C59.3529 35.7792 60.4625 35.312 61.5721 34.8476C62.1143 34.7558 62.6566 34.664 63.1989 34.5723C63.2156 36.1407 63.185 37.712 63.2629 39.2776C63.3074 40.1369 63.007 40.5986 62.2284 40.9629C57.0975 43.3517 51.9861 45.7795 46.872 48.1989C46.6662 48.2963 46.4743 48.4158 46.274 48.5271C46.1739 48.5994 46.0766 48.6717 45.9765 48.744L45.9876 48.7301C45.7846 48.794 45.5844 48.8552 45.3814 48.9192L45.3786 48.9136Z" fill="#23B49A"/>
<path d="M25.6716 45.9746C29.0031 47.6321 32.3347 49.2812 35.6635 50.9469C37.7159 51.9731 39.7599 53.0243 41.8066 54.0616C41.8289 56.0973 41.8511 58.1301 41.8762 60.1658C40.6275 59.6875 39.3399 59.2898 38.1358 58.7169C34.1479 56.8147 30.199 54.8319 26.2111 52.9298C25.3963 52.5404 25.0653 52.0816 25.1237 51.1555C25.2155 49.7261 25.1182 48.2884 25.171 46.8534C25.1821 46.5558 25.4964 46.2694 25.6716 45.9746Z" fill="#177968"/>
<path d="M31.5106 38.2379C31.6218 40.3626 31.7331 42.4844 31.8415 44.6091C31.327 44.4923 30.8042 44.4005 30.3009 44.2476C29.8837 44.1196 29.4888 43.9139 29.0856 43.7442C25.4815 41.9867 21.9608 40.0233 18.2482 38.5438C15.7009 37.5316 14.5996 36.1467 15.1169 33.4519C15.3088 32.4536 15.3032 31.4163 15.3866 30.3984C17.8478 31.6248 20.3006 32.8707 22.7728 34.0721C25.6761 35.482 28.5961 36.853 31.5106 38.2407V38.2379Z" fill="#131767"/>
<path d="M41.8723 60.1662C41.85 58.1306 41.8278 56.0977 41.8027 54.062C43.513 53.2055 45.2233 52.3545 46.928 51.4869C47.3702 51.2616 47.7873 50.9835 48.2184 50.7305C48.3129 51.6037 48.4631 52.4741 48.4909 53.3501C48.5299 54.5932 48.4826 55.8391 48.4715 57.0849C47.6427 57.5355 46.8112 57.9887 45.9825 58.4393C44.6115 59.0149 43.2433 59.5878 41.8723 60.1635V60.1662Z" fill="#46EFD1"/>
<path d="M44.9316 21.2051C46.5362 21.8336 48.1436 22.4621 49.7482 23.0878C49.751 23.2129 49.7538 23.3408 49.7566 23.466C48.2187 24.1195 46.6836 24.773 45.1486 25.4266C45.0762 24.0194 45.0039 22.6122 44.9316 21.2051Z" fill="#1C2070"/>
<path d="M63.1991 34.5708C62.6568 34.6625 62.1146 34.7543 61.5723 34.8461C61.6752 34.5624 61.7781 34.2788 61.8837 33.9951C62.3231 34.187 62.7597 34.3789 63.1991 34.5708Z" fill="#23B59B"/>
<path d="M39.313 45.6826C39.4103 45.8745 39.5077 46.0664 39.6022 46.2583C39.3881 46.1498 39.1712 46.0414 38.957 45.9329C39.0766 45.8495 39.1934 45.766 39.313 45.6854V45.6826Z" fill="#23B59B"/>
</svg>
