<svg width="79" height="79" viewBox="0 0 79 79" fill="none" xmlns="http://www.w3.org/2000/svg">
<rect width="78.2692" height="78.2692" rx="39.1346" fill="black"/>
<g clip-path="url(#clip0_1865_914)">
<path d="M31.5645 56.8212C32.4779 57.1266 33.2647 57.5282 34.0928 57.6465C36.6762 57.9877 38.448 56.7717 39.7081 54.5707C44.4457 46.317 49.2245 38.0771 53.9484 29.8097C54.4379 28.9888 54.7665 28.0821 54.9168 27.1382C55.225 24.6759 54.0529 22.9289 51.7227 21.6716C54.229 21.6716 56.529 21.3964 58.7328 21.7321C62.7303 22.3566 64.6616 26.9759 62.5845 30.6791C59.6929 35.8239 56.7024 40.9246 53.7503 46.0391C50.7982 51.1537 47.8985 56.1939 44.9464 61.2589C42.3905 65.6608 36.833 65.7186 34.2166 61.3882C33.317 59.908 32.4724 58.3976 31.5645 56.8212Z" fill="url(#paint0_linear_1865_914)"/>
<path d="M35.8434 21.5403C37.9041 21.5403 39.7804 21.4935 41.6513 21.5403C44.8262 21.6394 46.5814 24.6877 45.0187 27.5215C42.8755 31.4034 40.6168 35.2249 38.3828 39.0491C36.7321 41.8994 35.1033 44.7579 33.4306 47.5779C31.5818 50.7033 28.0217 50.7225 26.1646 47.6329C25.2485 46.1335 24.3818 44.5845 23.584 43.1787C24.6542 43.0604 25.851 43.2254 26.6901 42.7522C27.5292 42.279 28.217 41.2281 28.759 40.3091C31.4112 35.8247 33.9864 31.2989 36.6 26.7841C37.8903 24.5419 37.761 23.568 35.8434 21.5403Z" fill="#1ABCFF"/>
<path d="M25.3503 26.7756C25.3582 27.4748 25.2253 28.1684 24.9596 28.8152C24.6938 29.462 24.3006 30.0487 23.8033 30.5403C23.306 31.0319 22.7149 31.4184 22.0651 31.6768C21.4154 31.9351 20.7202 32.0601 20.0212 32.0442C18.6315 32.0269 17.304 31.4655 16.3236 30.4805C15.3432 29.4955 14.788 28.1653 14.7773 26.7756C14.7805 26.0756 14.9227 25.3831 15.1955 24.7385C15.4684 24.0938 15.8665 23.5097 16.3669 23.0201C16.8672 22.5305 17.4598 22.1451 18.1103 21.8863C18.7607 21.6275 19.456 21.5005 20.156 21.5125C20.8435 21.5139 21.524 21.6515 22.158 21.9174C22.7921 22.1832 23.3672 22.572 23.8501 23.0614C24.3331 23.5507 24.7143 24.1309 24.9718 24.7684C25.2293 25.4059 25.3579 26.0881 25.3503 26.7756Z" fill="#3DE0CF"/>
</g>
<defs>
<linearGradient id="paint0_linear_1865_914" x1="40.2813" y1="32.8155" x2="56.0206" y2="50.9557" gradientUnits="userSpaceOnUse">
<stop stop-color="#25A2FE"/>
<stop offset="1" stop-color="#3874FF"/>
</linearGradient>
<clipPath id="clip0_1865_914">
<rect width="48.6471" height="43.0786" fill="white" transform="translate(14.8105 21.5088)"/>
</clipPath>
</defs>
</svg>
