ply
format ascii 1.0
comment Created by CloudCompare v2.12.3 (Kyiv)
comment Created 2023-05-10T23:32:06
obj_info Generated by CloudCompare!
element vertex 10
property float x
property float y
property float z
property float nx
property float ny
property float nz
end_header
0.500000 0.096494 0.197912 0.999999 0.000978 0.000978 
0.500000 -0.290387 0.130875 0.999999 0.000978 0.000978 
-0.500000 -0.152340 -0.349227 -0.999999 0.000978 0.000978 
-0.328786 0.500000 0.158506 0.000978 0.999999 0.000978 
-0.126101 0.500000 0.280493 0.000978 0.999999 0.000978 
-0.285937 -0.500000 0.118472 0.000978 -0.999999 0.000978 
-0.367189 0.250970 0.500000 0.000978 0.000978 0.999999 
0.318859 -0.258663 0.500000 0.000978 0.000978 0.999999 
-0.137964 0.290882 -0.500000 0.000978 0.000978 -0.999999 
-0.200965 0.137840 -0.500000 0.000978 0.000978 -0.999999 
